<?xml version="1.0" encoding="iso-8859-1"?>
<!-- Generator: Adobe Illustrator 19.0.0, SVG Export Plug-In . SVG Version: 6.00 Build 0)  -->
<svg version="1.1" id="Capa_1" xmlns="http://www.w3.org/2000/svg" xmlns:xlink="http://www.w3.org/1999/xlink" x="0px" y="0px"
	 viewBox="0 0 381.28 381.28" style="enable-background:new 0 0 381.28 381.28;" xml:space="preserve">
<path style="fill:#CE7419;" d="M28.56,327.32h324.08c12.415,0,22.48,10.047,22.48,22.44l0,0c0,12.393-10.065,22.44-22.48,22.44
	H28.56c-12.415,0-22.48-10.047-22.48-22.44l0,0C6.08,337.367,16.145,327.32,28.56,327.32z"/>
<g>
	<path style="fill:#FCBA29;" d="M0,198.68c85.52,110.16,168.8,8.96,190.64-145.6c21.84,154.56,105.12,256,190.64,145.28
		l-74.56,128.96h-232L0,198.68z"/>
	<path style="fill:#E99A23;" d="M190.64,53.08c21.84,154.56,105.12,256,190.64,145.28l-74.56,128.96H190.64V53.08z"/>
</g>
<circle style="fill:#FCBA29;" cx="190.64" cy="31.08" r="22"/>
<g>
	<path style="fill:#CE7419;" d="M190.64,214.28l15.84,21.12l15.92,21.12l-15.92,21.12l-15.84,21.12l-15.84-21.12l-15.92-21.12
		l15.92-21.12L190.64,214.28z"/>
	<path style="fill:#CE7419;" d="M77.36,244.76c4.268-41.829,2.001-84.068-6.72-125.2c16.43,33.063,37.083,63.854,61.44,91.6
		c-16,20-35.04,32-55.04,33.6H77.36z M303.92,244.76c-4.268-41.829-2.001-84.068,6.72-125.2c-16.43,33.063-37.083,63.854-61.44,91.6
		C265.28,231.16,283.92,243.24,303.92,244.76z"/>
</g>
<g>
</g>
<g>
</g>
<g>
</g>
<g>
</g>
<g>
</g>
<g>
</g>
<g>
</g>
<g>
</g>
<g>
</g>
<g>
</g>
<g>
</g>
<g>
</g>
<g>
</g>
<g>
</g>
<g>
</g>
</svg>
